<?xml version="1.0" encoding="UTF-8" standalone="no"?>
<!-- Created with Inkscape (http://www.inkscape.org/) -->

<svg
   width="600"
   height="600"
   version="1.1"
   viewBox="0 0 599.99997 600.00002"
   id="svg5455"
   sodipodi:docname="logo-mobile.svg"
   inkscape:version="1.2.2 (b0a8486541, 2022-12-01)"
   xmlns:inkscape="http://www.inkscape.org/namespaces/inkscape"
   xmlns:sodipodi="http://sodipodi.sourceforge.net/DTD/sodipodi-0.dtd"
   xmlns="http://www.w3.org/2000/svg"
   xmlns:svg="http://www.w3.org/2000/svg"
   xmlns:rdf="http://www.w3.org/1999/02/22-rdf-syntax-ns#"
   xmlns:cc="http://creativecommons.org/ns#"
   xmlns:dc="http://purl.org/dc/elements/1.1/">
  <defs
     id="defs5459">
    <linearGradient
       id="linearGradient7594"
       inkscape:swatch="solid">
      <stop
         style="stop-color:#084887;stop-opacity:1;"
         offset="0"
         id="stop7592" />
    </linearGradient>
  </defs>
  <sodipodi:namedview
     id="namedview5457"
     pagecolor="#505050"
     bordercolor="#eeeeee"
     borderopacity="1"
     inkscape:showpageshadow="0"
     inkscape:pageopacity="0"
     inkscape:pagecheckerboard="0"
     inkscape:deskcolor="#505050"
     showgrid="false"
     inkscape:zoom="0.9121852"
     inkscape:cx="4.3850744"
     inkscape:cy="346.42088"
     inkscape:window-width="1920"
     inkscape:window-height="1012"
     inkscape:window-x="0"
     inkscape:window-y="0"
     inkscape:window-maximized="1"
     inkscape:current-layer="svg5455" />
  <metadata
     id="metadata5451">
    <rdf:RDF>
      <cc:Work
         rdf:about="">
        <dc:format>image/svg+xml</dc:format>
        <dc:type
           rdf:resource="http://purl.org/dc/dcmitype/StillImage" />
      </cc:Work>
    </rdf:RDF>
  </metadata>
  <g
     inkscape:groupmode="layer"
     id="layer1"
     inkscape:label="Layer 1"
     style="display:none">
    <rect
       style="fill:none;fill-opacity:1;stroke:#084887;stroke-width:50;stroke-linejoin:miter;stroke-dasharray:none;stroke-opacity:1"
       id="rect5574"
       width="550"
       height="550"
       x="25"
       y="25" />
  </g>
  <path
     d="m 297.75031,589.92331 -1.66471,-1.34306 -12.49942,-38.68 -6.235,-16.11667 -13.18612,-32.23334 -23.83655,-47.27556 -11.61851,-19.34 -20.22642,-30.08444 -17.46106,-22.54185 -25.82159,-25.80816 -18.23064,-14.20147 -15.04222,-9.71916 -12.16607,-6.5721 -17.91905,-7.27668 -16.343648,-5.04949 27.088088,-18.16885 12.89334,-10.23677 13.06967,-13.65619 8.00636,-12.08509 6.28026,-15.43171 2.48949,-14.29548 -0.59872,-11.34909 -0.59871,-11.34909 -5.68058,-23.59346 -7.27211,-21.97508 -4.60185,-11.57606 L 131.9727,138.38839 116.48592,106.83196 106.36304,88.963944 99.865606,78.219498 83.633435,52.432829 54.948452,9.7908183 55.770617,8.9686668 79.279464,26.664768 94.321687,38.314427 126.55502,65.25881 l 31.1589,27.821398 22.56333,20.586362 35.52248,35.46741 12.96922,13.96778 22.51767,26.86111 10.71678,15.04223 3.99518,6.09156 3.99506,6.09156 v 1.55916 l -11.28167,-10.60477 -17.42615,-13.21083 -27.17539,-18.37838 -14.49425,-7.27641 -16.50213,-6.58688 -3.83657,-0.71973 -3.83657,-0.71976 v 1.25232 l 5.54252,12.41736 6.34151,17.19111 1.57903,9.00492 1.57903,9.00492 -0.008,17.44629 -3.21474,19.82082 -6.24884,15.72987 -10.81455,18.79472 -9.10121,11.19517 -11.69963,12.1427 1.20695,1.95294 18.92903,11.48796 17.19111,13.33869 16.23351,14.80048 21.03763,22.97297 11.68351,14.63259 15.85477,22.56333 14.83539,23.63778 12.66394,22.56334 8.20997,15.04222 3.56272,6.98389 h 17.63566 l 14.49158,-26.32389 19.387,-32.23334 10.65258,-16.11666 13.09144,-18.26556 19.58041,-23.63778 21.34115,-21.6608 18.26556,-14.47143 24.71222,-16.49004 0.57302,-0.24067 -13.67768,-14.15715 -13.40504,-19.57235 -8.58494,-18.31928 -2.73594,-10.93664 -2.73594,-10.93663 -0.0833,-24.71223 2.83331,-10.74444 2.83331,-10.74445 9.73272,-23.45915 -0.99162,-0.99161 -10.28955,2.52293 -15.26786,6.28107 -15.89103,8.91198 -11.81889,7.68174 -27.93556,20.23582 -12.35611,12.05849 v -1.93601 l 16.071,-23.92922 28.38683,-34.23584 53.85519,-53.51942 24.54971,-21.691695 30.24696,-26.605933 34.67501,-28.190732 12.60082,-9.773684 14.505,-10.2921047 v 1.0285389 l -37.13146,55.5689218 -11.10694,18.265557 -13.41524,23.637781 -8.37208,16.11667 -9.81169,21.48889 -6.21136,16.11667 -3.55924,10.74444 -3.55923,10.74445 -1.76638,6.00466 -1.76639,6.00467 -1.60509,10.64922 -1.60508,10.64923 -0.007,7.97036 -0.007,7.97037 2.45604,14.14371 7.20899,15.83732 4.72447,6.58661 4.72446,6.58661 17.95397,17.39795 31.87743,20.92212 -0.54399,0.544 -0.544,0.54399 -25.41732,8.4853 -19.03648,9.70787 -13.64544,8.29001 -16.74253,12.51045 -22.29741,21.52245 -17.6303,21.48889 -15.98504,21.48889 -12.14848,19.34 -15.28397,26.86112 -21.1303,42.97778 -4.93318,11.81889 -4.93317,11.81889 -7.36881,19.34 -8.56386,25.78667 -4.63005,15.57944 h -3.82516 l -1.66485,-1.34305 z m -52.74179,-243.72432 -4.03347,-0.95064 -10.43258,-5.28653 -17.52151,-16.48333 -12.9629,-17.2032 0.50241,-0.50238 0.50239,-0.5024 12.52279,2.71633 17.93651,9.35492 12.48021,8.47522 6.63523,8.04974 1.77659,5.40634 1.7766,5.4062 0.49569,1.34306 0.49567,1.34305 -6.13937,-0.21596 z m 101.81033,-2.3255 0.7109,-3.49194 0.98858,-3.88439 0.9886,-3.88438 10.20238,-9.54228 13.77841,-8.07445 14.15715,-6.51879 11.63422,-4.09511 0.36443,0.36444 0.36445,0.36442 -17.11859,22.62646 -11.82654,10.80878 -10.00134,5.5898 -10.87472,3.22951 h -4.07846 z"
     stroke-width="0.8"
     id="path5453"
     style="fill:#084887;fill-opacity:1;stroke:#084887;stroke-width:10;stroke-dasharray:none;stroke-opacity:1" />
</svg>
